<svg width="222" height="64" viewBox="0 0 222 64" fill="none" xmlns="http://www.w3.org/2000/svg">
  <path d="M78.2842 19.9405H84.6457V32.1974C84.653 33.3689 84.4603 34.5331 84.0757 35.6402C83.7036 36.7075 83.0924 37.6763 82.2883 38.473C81.5713 39.2193 80.6995 39.8008 79.7338 40.177C78.4953 40.6351 77.0081 40.8642 75.2723 40.8642C74.1737 40.8583 73.0763 40.7881 71.9859 40.6539C70.799 40.5137 69.8067 40.2355 69.0092 39.8195C68.173 39.3723 67.4302 38.7702 66.8207 38.0454C66.2053 37.3597 65.7425 36.552 65.4628 35.6753C65.0687 34.3664 64.8716 33.2071 64.8716 32.1974V19.9405H71.2331V32.4918C71.2331 33.6138 71.5451 34.4903 72.1691 35.1213C72.793 35.7524 73.6586 36.068 74.7657 36.068C75.8635 36.068 76.7244 35.7571 77.3484 35.1353C77.9723 34.5136 78.2843 33.6324 78.2843 32.4918L78.2842 19.9405ZM88.9102 19.9405H94.8633L102.632 31.3138V19.9405H108.642V40.4995H102.632L94.9056 29.2103V40.4995H88.9099L88.9102 19.9405ZM112.076 30.2336C112.076 26.8772 113.015 24.2641 114.891 22.3943C116.768 20.5244 119.381 19.5895 122.731 19.5895C126.165 19.5895 128.811 20.5081 130.668 22.3452C132.526 24.1824 133.455 26.7559 133.455 30.0657C133.455 32.4685 133.049 34.4388 132.238 35.9768C131.447 37.4936 130.223 38.7429 128.72 39.5669C127.185 40.4223 125.274 40.8501 122.984 40.8501C120.657 40.8501 118.732 40.4808 117.207 39.7422C115.682 39.0036 114.446 37.8351 113.498 36.2367C112.55 34.6377 112.076 32.6367 112.076 30.2336ZM118.452 30.2616C118.452 32.3372 118.839 33.8284 119.613 34.7353C120.387 35.6422 121.44 36.0956 122.773 36.0956C124.142 36.0956 125.203 35.6516 125.954 34.7634C126.704 33.8753 127.08 32.2813 127.079 29.9813C127.079 28.0461 126.688 26.6321 125.904 25.7394C125.121 24.8468 124.058 24.4004 122.717 24.4002C121.431 24.4002 120.399 24.8536 119.62 25.7605C118.841 26.6674 118.452 28.1679 118.452 30.262V30.2616ZM136.861 19.94H147.459C149.767 19.94 151.496 20.4869 152.646 21.5808C153.795 22.6747 154.37 24.2315 154.369 26.2513C154.369 28.3268 153.743 29.949 152.491 31.1176C151.238 32.2863 149.326 32.8705 146.755 32.8704H143.265V40.4995H136.861V19.94ZM143.265 28.7054H144.827C146.056 28.7054 146.919 28.4927 147.417 28.0673C147.657 27.8689 147.849 27.6188 147.978 27.3358C148.107 27.0529 148.17 26.7444 148.163 26.4336C148.169 26.131 148.115 25.8301 148.004 25.5484C147.893 25.2668 147.727 25.0099 147.515 24.7928C147.084 24.3441 146.272 24.1197 145.08 24.1197H143.265V28.7054ZM167.951 37.1057H160.689L159.689 40.4995H153.173L160.928 19.9405H167.88L175.635 40.4995H168.964L167.951 37.1057ZM166.614 32.6602L164.334 25.27L162.068 32.6606L166.614 32.6602ZM177.761 40.4995V19.9405H188.386C190.357 19.9405 191.863 20.1088 192.904 20.4454C193.93 20.7708 194.817 21.43 195.423 22.3175C196.061 23.229 196.38 24.3393 196.38 25.6483C196.38 26.7889 196.136 27.7729 195.648 28.6004C195.159 29.4295 194.467 30.1218 193.636 30.6127C193.092 30.9399 192.346 31.2112 191.399 31.4266C192.159 31.6791 192.712 31.9315 193.059 32.184C193.294 32.3523 193.634 32.7123 194.079 33.2639C194.418 33.6596 194.717 34.087 194.973 34.5401L198.056 40.4995H190.85L187.444 34.2169C187.012 33.4034 186.627 32.8752 186.29 32.6322C185.831 32.3148 185.285 32.1481 184.727 32.1554H184.164V40.4995H177.761ZM184.164 28.2707H186.852C187.143 28.2707 187.706 28.1774 188.541 27.9909C188.955 27.9122 189.324 27.6821 189.576 27.3458C189.842 27.0053 189.983 26.5849 189.977 26.1538C189.977 25.49 189.766 24.9805 189.344 24.6252C188.922 24.27 188.129 24.0921 186.965 24.0917H184.164V28.2707ZM200.125 19.9405H206.5V27.7097L213.185 19.9405H221.658L214.142 27.6957L221.996 40.4995H214.142L209.794 32.043L206.5 35.479V40.4995H200.125V19.9405Z" fill="#08173F"/>
  <path d="M22.5424 0.046814H20.2126C19.1081 0.046814 18.2126 0.942243 18.2126 2.04681V4.35394C18.2126 5.45851 19.1081 6.35394 20.2126 6.35394H22.5424C23.647 6.35394 24.5424 5.45851 24.5424 4.35394V2.04681C24.5424 0.942245 23.647 0.046814 22.5424 0.046814Z" fill="#32B5CD"/>
  <path d="M35.1994 0.046814H32.8696C31.7651 0.046814 30.8696 0.942243 30.8696 2.04681V4.35394C30.8696 5.45851 31.7651 6.35394 32.8696 6.35394H35.1994C36.3039 6.35394 37.1994 5.45851 37.1994 4.35394V2.04681C37.1994 0.942245 36.3039 0.046814 35.1994 0.046814Z" fill="#32B5CD"/>
  <path d="M47.862 0.046814H45.5322C44.4277 0.046814 43.5322 0.942243 43.5322 2.04681V4.35394C43.5322 5.45851 44.4277 6.35394 45.5322 6.35394H47.862C48.9666 6.35394 49.862 5.45851 49.862 4.35394V2.04681C49.862 0.942245 48.9666 0.046814 47.862 0.046814Z" fill="#32B5CD"/>
  <path d="M22.5424 12.6609H20.2126C19.1081 12.6609 18.2126 13.5564 18.2126 14.6609V16.9681C18.2126 18.0726 19.1081 18.9681 20.2126 18.9681H22.5424C23.647 18.9681 24.5424 18.0726 24.5424 16.9681V14.6609C24.5424 13.5564 23.647 12.6609 22.5424 12.6609Z" fill="#32B5CD"/>
  <path d="M35.1994 12.6609H32.8696C31.7651 12.6609 30.8696 13.5564 30.8696 14.6609V16.9681C30.8696 18.0726 31.7651 18.9681 32.8696 18.9681H35.1994C36.3039 18.9681 37.1994 18.0726 37.1994 16.9681V14.6609C37.1994 13.5564 36.3039 12.6609 35.1994 12.6609Z" fill="#32B5CD"/>
  <path d="M47.862 12.6609H45.5322C44.4277 12.6609 43.5322 13.5564 43.5322 14.6609V16.9681C43.5322 18.0726 44.4277 18.9681 45.5322 18.9681H47.862C48.9666 18.9681 49.862 18.0726 49.862 16.9681V14.6609C49.862 13.5564 48.9666 12.6609 47.862 12.6609Z" fill="#32B5CD"/>
  <path d="M35.1994 25.2754H32.8696C31.7651 25.2754 30.8696 26.1708 30.8696 27.2754V29.5825C30.8696 30.6871 31.7651 31.5825 32.8696 31.5825H35.1994C36.3039 31.5825 37.1994 30.6871 37.1994 29.5825V27.2754C37.1994 26.1708 36.3039 25.2754 35.1994 25.2754Z" fill="#32B5CD"/>
  <path d="M47.862 25.2754H45.5322C44.4277 25.2754 43.5322 26.1708 43.5322 27.2754V29.5825C43.5322 30.6871 44.4277 31.5825 45.5322 31.5825H47.862C48.9666 31.5825 49.862 30.6871 49.862 29.5825V27.2754C49.862 26.1708 48.9666 25.2754 47.862 25.2754Z" fill="#32B5CD"/>
  <path d="M14.3481 63.6194H10.2832C7.55693 63.6164 4.94315 62.536 3.01533 60.6151C1.08751 58.6943 0.00309092 56.0899 0 53.3734V2C0 0.895428 0.895431 0 2 0H4.32975C5.43432 0 6.32975 0.895431 6.32975 2V53.3734C6.33089 54.4177 6.74773 55.4189 7.48882 56.1573C8.22991 56.8958 9.23471 57.3111 10.2828 57.3123H14.3477C15.3958 57.3111 16.4006 56.8958 17.1417 56.1573C17.8827 55.4189 18.2996 54.4177 18.3007 53.3734V27.2283C18.3007 26.1238 19.1961 25.2283 20.3007 25.2283H22.6305C23.735 25.2283 24.6305 26.1237 24.6305 27.2283V53.3734C24.6274 56.0898 23.5431 58.694 21.6155 60.6148C19.6878 62.5356 17.0743 63.6162 14.3481 63.6194Z" fill="#08173F"/>
</svg>
